<!DOCTYPE svg PUBLIC "-//W3C//DTD SVG 1.1//EN" "http://www.w3.org/Graphics/SVG/1.1/DTD/svg11.dtd">
<!-- Uploaded to: SVG Repo, www.svgrepo.com, Transformed by: SVG Repo Mixer Tools -->
<svg width="800px" height="800px" viewBox="0 0 16 16" xmlns="http://www.w3.org/2000/svg" fill="none" stroke="">
<g id="SVGRepo_bgCarrier" stroke-width="0"/>
<g id="SVGRepo_tracerCarrier" stroke-linecap="round" stroke-linejoin="round"/>
<g id="SVGRepo_iconCarrier">
<path fill="#fec600" fill-rule="evenodd" d="M0 3.25A2.25 2.25 0 012.25 1h11.5A2.25 2.25 0 0116 3.25v6.5A2.25 2.25 0 0113.75 12H8.5v1.5H11a.75.75 0 010 1.5H5a.75.75 0 010-1.5h2V12H2.25A2.25 2.25 0 010 9.75v-6.5zm13.75 7.25a.75.75 0 00.75-.75v-6.5a.75.75 0 00-.75-.75H2.25a.75.75 0 00-.75.75v6.5c0 .414.336.75.75.75h11.5z" clip-rule="evenodd"/>
</g>
</svg>